<?xml version="1.0" encoding="UTF-8"?>
<svg id="Layer_2" data-name="Layer 2" xmlns="http://www.w3.org/2000/svg" viewBox="0 0 140 125.53">
  <defs>
    <style>
      .cls-1 {
        fill: #fff;
      }

      .cls-2 {
        fill: #332d31;
      }

      .cls-3 {
        fill: #64a532;
      }
    </style>
  </defs>
  <g id="Layer_1-2" data-name="Layer 1">
    <g>
      <path class="cls-2" d="m105.65,17.35c-1.96,0-3.9.17-5.81.5-.04,0-.08.01-.12.02-.13.01-.25.04-.38.07-.02.01-.06.01-.11.03-.62.11-1.24.24-1.86.39-6.48-8.48-16.46-13.46-27.26-13.46-3.56,0-7.01.54-10.28,1.56-2.11.66-3.09,3.03-2.26,5.08.03.08.07.17.1.25.74,1.89,2.78,2.85,4.72,2.26,2.46-.75,5.06-1.15,7.73-1.15,7.72,0,14.9,3.32,19.87,9.03.87,1,1.67,2.08,2.39,3.22.99,1.56,2.93,2.24,4.68,1.64,1.37-.48,2.77-.83,4.19-1.07.02,0,.04-.01.04-.01,2.16-.36,4.37-.45,6.59-.27,12.62,1.03,22.86,11.18,24.02,23.78,1.26,13.82-8.17,26-21.53,28.41-1.92.35-3.33,2-3.33,3.95v32.38c-22.65,4.74-46.01,4.74-68.65,0v-29.18c0-2.18-1.74-4.01-3.92-4s-4.22-.24-6.22-.72c-11.59-2.76-20.24-13.2-20.24-25.63,0-4.82,1.3-9.33,3.58-13.22.78-1.33.79-3-.11-4.25-.05-.08-.11-.15-.16-.23-1.64-2.33-5.1-2.19-6.54.26C1.74,42.1,0,48.07,0,54.43c0,17.59,13.29,32.13,30.38,34.12v28.63c0,1.86,1.29,3.48,3.11,3.9,12.9,2.95,26.09,4.45,39.21,4.45s26.32-1.5,39.22-4.45c1.82-.42,3.11-2.04,3.11-3.9v-32.42c14.65-4.13,24.97-17.53,24.97-33.06,0-18.94-15.41-34.35-34.35-34.35Zm-73.37,10.82c.68-.06,1.37-.09,2.07-.09h.17c2.54.02,5.04.39,7.44,1.11,1.85.56,3.83-.28,4.71-2,1.86-3.6,4.47-6.65,7.57-9-.43-2.81-1.41-5.45-2.82-7.79-4.07,2.64-7.58,6.15-10.26,10.35-.06,0-.13-.03-.19-.04-2-.39-4.05-.6-6.11-.62-.17-.01-.34-.01-.51-.01-.84,0-1.67.03-2.49.09-2.1.15-4.15.49-6.12,1-4.93,1.28-9.44,3.63-13.25,6.78.83,2.67,2.18,5.11,3.91,7.22,4.23-3.96,9.76-6.53,15.88-7Z"/>
      <path class="cls-1" d="m54.5,21.5c0,11.88-9.62,21.5-21.5,21.5-6.68,0-12.65-3.05-16.6-7.83-1.73-2.11-3.08-4.55-3.91-7.22-.64-2.04-.99-4.2-.99-6.45C11.5,9.63,21.13,0,33,0c7.82,0,14.65,4.17,18.42,10.4,1.41,2.34,2.39,4.98,2.82,7.79.17,1.08.26,2.18.26,3.31Z"/>
      <path class="cls-3" d="m54.5,21.5c0,11.88-9.62,21.5-21.5,21.5-6.68,0-12.65-3.05-16.6-7.83-1.73-2.11-3.08-4.55-3.91-7.22-.64-2.04-.99-4.2-.99-6.45C11.5,9.63,21.13,0,33,0c7.82,0,14.65,4.17,18.42,10.4,1.41,2.34,2.39,4.98,2.82,7.79.17,1.08.26,2.18.26,3.31Z"/>
      <path class="cls-1" d="m39.5,22.5h-12.29c-.83,0-1.5-.67-1.5-1.5s.67-1.5,1.5-1.5h12.29c.83,0,1.5.67,1.5,1.5s-.67,1.5-1.5,1.5Z"/>
      <path class="cls-1" d="m33.36,28.64c-.83,0-1.5-.67-1.5-1.5v-12.29c0-.83.67-1.5,1.5-1.5s1.5.67,1.5,1.5v12.29c0,.83-.67,1.5-1.5,1.5Z"/>
      <path class="cls-2" d="m85.61,105.63c-10.55,1.42-19.82,1.9-27.5,1.9-8.83,0-15.56-.63-19.73-1.17-2.94-.39-4.6-.73-4.83-.78-1.88-.39-3.17-2.06-3.17-3.9,0-.28.03-.56.09-.84.45-2.16,2.57-3.54,4.73-3.09.05.01,1.14.23,3.18.51,3.72.52,10.58,1.24,19.89,1.24,7.34,0,16.21-.45,26.27-1.8,2.2-.29,4.2,1.25,4.5,3.43.29,2.19-1.24,4.21-3.43,4.5Z"/>
      <path class="cls-2" d="m52.48,83.67c.21,2.2-1.4,4.15-3.6,4.36-3.49.33-6.97.44-10.07.44h-.43c-5.78-.02-10.1-.41-10.38-.44-2.19-.21-3.81-2.16-3.6-4.36.19-2.02,1.86-3.55,3.84-3.61.17,0,.34,0,.51.01.1,0,9.89.9,19.37,0,2.2-.21,4.16,1.4,4.36,3.6Z"/>
      <path class="cls-2" d="m101.28,25.71s-.02.01-.04.01c-.76.2-11.2,3.15-15.16,11.07-.7,1.4-2.11,2.21-3.58,2.21-.6,0-1.21-.13-1.79-.42-1.97-.99-2.77-3.39-1.78-5.37,2.63-5.28,7.02-8.9,11.05-11.28,4.77-2.81,9.04-3.91,9.36-3.99.13-.03.25-.06.38-.07.04,0,.08-.02.12-.02,1.98-.23,3.86,1.04,4.35,3.01.53,2.14-.77,4.31-2.91,4.85Z"/>
    </g>
  </g>
</svg>